name GIL02_static.mot
datacolumns 141
datarows 4
range 0.44166666 0.46666667
endheader

                time	           pelvis_tx	           pelvis_ty	           pelvis_tz	         pelvis_tilt	         pelvis_list	     pelvis_rotation	       hip_flexion_r	     hip_adduction_r	      hip_rotation_r	        knee_angle_r	       ankle_angle_r	    subtalar_angle_r	         mtp_angle_r	       hip_flexion_l	     hip_adduction_l	      hip_rotation_l	        knee_angle_l	       ankle_angle_l	    subtalar_angle_l	         mtp_angle_l	    lumbar_extension	      lumbar_bending	     lumbar_rotation	    ground_marker_px	    ground_marker_py	    ground_marker_pz	    ground_marker_px	    ground_marker_py	    ground_marker_pz	    ground_marker_px	    ground_marker_py	    ground_marker_pz	    ground_marker_px	    ground_marker_py	    ground_marker_pz	    ground_marker_px	    ground_marker_py	    ground_marker_pz	    ground_marker_px	    ground_marker_py	    ground_marker_pz	    ground_marker_px	    ground_marker_py	    ground_marker_pz	    ground_marker_px	    ground_marker_py	    ground_marker_pz	    ground_marker_px	    ground_marker_py	    ground_marker_pz	    ground_marker_px	    ground_marker_py	    ground_marker_pz	    ground_marker_px	    ground_marker_py	    ground_marker_pz	    ground_marker_px	    ground_marker_py	    ground_marker_pz	    ground_marker_px	    ground_marker_py	    ground_marker_pz	    ground_marker_px	    ground_marker_py	    ground_marker_pz	    ground_marker_px	    ground_marker_py	    ground_marker_pz	    ground_marker_px	    ground_marker_py	    ground_marker_pz	    ground_marker_px	    ground_marker_py	    ground_marker_pz	    ground_marker_px	    ground_marker_py	    ground_marker_pz	    ground_marker_px	    ground_marker_py	    ground_marker_pz	    ground_marker_px	    ground_marker_py	    ground_marker_pz	    ground_marker_px	    ground_marker_py	    ground_marker_pz	    ground_marker_px	    ground_marker_py	    ground_marker_pz	    ground_marker_px	    ground_marker_py	    ground_marker_pz	    ground_marker_px	    ground_marker_py	    ground_marker_pz	    ground_marker_px	    ground_marker_py	    ground_marker_pz	    ground_marker_px	    ground_marker_py	    ground_marker_pz	    ground_marker_px	    ground_marker_py	    ground_marker_pz	    ground_marker_px	    ground_marker_py	    ground_marker_pz	    ground_marker_px	    ground_marker_py	    ground_marker_pz	    ground_marker_px	    ground_marker_py	    ground_marker_pz	    ground_marker_px	    ground_marker_py	    ground_marker_pz	    ground_marker_px	    ground_marker_py	    ground_marker_pz	    ground_marker_px	    ground_marker_py	    ground_marker_pz	    ground_marker_px	    ground_marker_py	    ground_marker_pz	    ground_marker_px	    ground_marker_py	    ground_marker_pz	    ground_marker_px	    ground_marker_py	    ground_marker_pz	    ground_marker_px	    ground_marker_py	    ground_marker_pz	    ground_marker_px	    ground_marker_py	    ground_marker_pz	    ground_marker_px	    ground_marker_py	    ground_marker_pz	
          0.44166666	          1.56542945	          0.96028769	         -0.24689530	         -5.15830421	          2.19283867	         -2.15171099	          2.33636379	         -7.58558798	         10.97340012	         -1.23576665	          4.02408361	          0.00000000	          0.00000000	         -0.30334091	         -1.65272975	          4.96806860	         -1.57595193	          6.18213463	          0.00000000	          0.00000000	         -2.84285951	          2.83849406	         -4.72773218	          1.47994244	          0.90567601	         -0.24739519	          1.46611512	          0.87972093	         -0.17831628	          1.47320867	          0.88355052	         -0.32852948	          1.44339871	          0.47023293	         -0.13531512	          1.43331218	          0.46078381	         -0.35347784	          1.40698683	          0.06926432	         -0.13026832	          1.38383627	          0.07102316	         -0.36332583	          1.56542945	          0.96028769	         -0.24689530	          1.55980539	          0.95725143	         -0.12779781	          1.57105362	          0.96332401	         -0.36599278	          1.38031733	          1.01770639	         -0.22183110	          1.38936961	          1.01578367	         -0.30692315	          1.45249856	          0.47598001	         -0.07578015	          1.44146037	          0.46351907	         -0.41285905	          1.42704284	          0.47785950	         -0.18585086	          1.42782474	          0.46552688	         -0.30361572	          1.39147341	          0.07116376	         -0.09128466	          1.36511397	          0.07431760	         -0.39965242	          1.41585553	          0.08312452	         -0.15781076	          1.39080477	          0.08292846	         -0.33820599	          1.34279108	          0.04255810	         -0.14395788	          1.31756020	          0.04288085	         -0.35217285	          1.48506784	          1.36992466	         -0.23619512	          1.56793022	          1.20675826	         -0.24716896	          1.37259197	          1.43597472	         -0.24057978	          1.49505639	          1.35866451	         -0.18363899	          1.50970328	          1.36552334	         -0.29087317	          1.52563488	          0.03964425	         -0.09950658	          1.50060618	          0.04103065	         -0.40172261	          1.50638998	          0.59141558	         -0.00976831	          1.59598517	          0.55290246	         -0.34129450	          1.52221048	          0.65143645	         -0.08317442	          1.53586483	          0.61825913	         -0.38185832	          1.51357329	          0.56398982	         -0.09915195	          1.51036263	          0.53618133	         -0.38599515	          1.41822374	          0.20507482	         -0.00596465	          1.40647733	          0.21171583	         -0.47969830	          1.40611279	          0.17184283	         -0.07888968	          1.38595426	          0.17386381	         -0.41078880	
          0.44999999	          1.56538391	          0.96031237	         -0.24691768	         -5.14869690	          2.18880963	         -2.17144871	          2.33911514	         -7.57313490	         10.97092819	         -1.24546003	          4.01772881	          0.00000000	          0.00000000	         -0.29562759	         -1.65608382	          4.90644741	         -1.60785043	          6.19526291	          0.00000000	          0.00000000	         -2.87385488	          2.89316249	         -4.77208996	          1.47985899	          0.90575624	         -0.24740671	          1.46606076	          0.87974179	         -0.17835566	          1.47319996	          0.88354713	         -0.32856733	          1.44341719	          0.47024065	         -0.13537990	          1.43343616	          0.46078187	         -0.35347798	          1.40703630	          0.06924992	         -0.13025326	          1.38387787	          0.07101478	         -0.36334115	          1.56538391	          0.96031237	         -0.24691768	          1.55972481	          0.95729595	         -0.12784928	          1.57104290	          0.96332872	         -0.36598608	          1.38016868	          1.01774871	         -0.22199242	          1.38925147	          1.01578343	         -0.30699852	          1.45249426	          0.47598714	         -0.07584136	          1.44153881	          0.46351904	         -0.41286534	          1.42693567	          0.47778571	         -0.18576044	          1.42783070	          0.46553692	         -0.30366161	          1.39150882	          0.07115702	         -0.09127557	          1.36512840	          0.07431763	         -0.39965293	          1.41588748	          0.08298989	         -0.15786476	          1.39079797	          0.08299472	         -0.33822197	          1.34277666	          0.04254577	         -0.14394993	          1.31757188	          0.04287162	         -0.35218406	          1.48501050	          1.36996675	         -0.23633711	          1.56781948	          1.20677447	         -0.24732703	          1.37257063	          1.43602443	         -0.24053597	          1.49493003	          1.35866475	         -0.18376271	          1.50971091	          1.36559463	         -0.29100332	          1.52562904	          0.03963213	         -0.09954941	          1.50060570	          0.04102352	         -0.40171087	          1.50639772	          0.59141147	         -0.00980644	          1.59595704	          0.55289608	         -0.34125784	          1.52208889	          0.65152502	         -0.08324072	          1.53583658	          0.61834276	         -0.38186252	          1.51349485	          0.56396002	         -0.09920206	          1.51036441	          0.53620452	         -0.38600782	          1.41822004	          0.20507705	         -0.00597497	          1.40649366	          0.21170345	         -0.47969842	          1.40599632	          0.17187637	         -0.07885665	          1.38600361	          0.17382389	         -0.41077960	
          0.45833334	          1.56533635	          0.96034598	         -0.24693868	         -5.13519478	          2.18169785	         -2.19271207	          2.33710098	         -7.55806828	         10.97047234	         -1.25559235	          4.01001167	          0.00000000	          0.00000000	         -0.29659557	         -1.66232872	          4.85132980	         -1.63248193	          6.21184683	          0.00000000	          0.00000000	         -2.96661305	          2.88839722	         -4.75844574	          1.47971463	          0.90578353	         -0.24745405	          1.46600938	          0.87976903	         -0.17838986	          1.47319543	          0.88354176	         -0.32860011	          1.44343257	          0.47025707	         -0.13543582	          1.43352938	          0.46077654	         -0.35347289	          1.40707207	          0.06925552	         -0.13023627	          1.38390553	          0.07100209	         -0.36335319	          1.56533635	          0.96034598	         -0.24693868	          1.55964136	          0.95735610	         -0.12789567	          1.57103133	          0.96333587	         -0.36598167	          1.38001680	          1.01778138	         -0.22215798	          1.38911867	          1.01578653	         -0.30707428	          1.45248842	          0.47600323	         -0.07589403	          1.44159400	          0.46351415	         -0.41286543	          1.42690516	          0.47776145	         -0.18571621	          1.42795300	          0.46566612	         -0.30350626	          1.39153135	          0.07116999	         -0.09126417	          1.36513329	          0.07431221	         -0.39965260	          1.41592455	          0.08292668	         -0.15786222	          1.39084685	          0.08308262	         -0.33826894	          1.34276211	          0.04252876	         -0.14394079	          1.31757855	          0.04285510	         -0.35218650	          1.48491788	          1.36993992	         -0.23633979	          1.56750202	          1.20663130	         -0.24729420	          1.37254465	          1.43616736	         -0.24056625	          1.49481678	          1.35863328	         -0.18373753	          1.50961745	          1.36552429	         -0.29102966	          1.52564573	          0.03960373	         -0.09960545	          1.50059700	          0.04103006	         -0.40170500	          1.50639451	          0.59141546	         -0.00985257	          1.59596264	          0.55289561	         -0.34125787	          1.52201319	          0.65162975	         -0.08328620	          1.53585875	          0.61842370	         -0.38192376	          1.51345694	          0.56396699	         -0.09923805	          1.51043534	          0.53627950	         -0.38595787	          1.41821218	          0.20508029	         -0.00598150	          1.40650964	          0.21169350	         -0.47970459	          1.40583682	          0.17196034	         -0.07884240	          1.38586485	          0.17378588	         -0.41080916	
          0.46666667	          1.56528735	          0.96038270	         -0.24695292	         -5.11810112	          2.17327023	         -2.21183968	          2.32955360	         -7.54252052	         10.96951580	         -1.26627183	          4.00206423	          0.00000000	          0.00000000	         -0.30690765	         -1.67049932	          4.81142139	         -1.64707065	          6.22935915	          0.00000000	          0.00000000	         -3.06040740	          2.83252406	         -4.77227640	          1.47951543	          0.90575135	         -0.24753392	          1.46596456	          0.87979370	         -0.17841223	          1.47319090	          0.88353258	         -0.32862136	          1.44344413	          0.47028047	         -0.13548073	          1.43357980	          0.46076331	         -0.35346797	          1.40708733	          0.06928211	         -0.13021824	          1.38391626	          0.07098907	         -0.36336052	          1.56528735	          0.96038270	         -0.24695292	          1.55956137	          0.95742005	         -0.12793030	          1.57101345	          0.96334529	         -0.36597553	          1.37986660	          1.01779604	         -0.22232614	          1.38898003	          1.01578867	         -0.30714452	          1.45248079	          0.47602591	         -0.07593597	          1.44161975	          0.46350077	         -0.41286379	          1.42705822	          0.47768563	         -0.18570247	          1.42804396	          0.46585053	         -0.30336863	          1.39153492	          0.07120355	         -0.09125114	          1.36512935	          0.07430391	         -0.39965191	          1.41589916	          0.08294447	         -0.15783292	          1.39085984	          0.08316518	         -0.33834592	          1.34275019	          0.04251211	         -0.14393269	          1.31758046	          0.04283482	         -0.35218140	          1.48482549	          1.36989713	         -0.23640116	          1.56718278	          1.20645952	         -0.24713837	          1.37247717	          1.43630481	         -0.24064960	          1.49467158	          1.35862875	         -0.18364586	          1.50955629	          1.36539185	         -0.29121402	          1.52568448	          0.03956541	         -0.09966166	          1.50058162	          0.04104883	         -0.40170333	          1.50637746	          0.59142470	         -0.00990535	          1.59598410	          0.55289668	         -0.34128258	          1.52201581	          0.65164065	         -0.08331256	          1.53599370	          0.61846423	         -0.38201329	          1.51351392	          0.56399769	         -0.09921338	          1.51054859	          0.53631330	         -0.38592288	          1.41820288	          0.20508291	         -0.00598593	          1.40652609	          0.21168447	         -0.47971720	          1.40594161	          0.17197199	         -0.07890670	          1.38580084	          0.17386451	         -0.41090319	
